<?xml version="1.0" standalone="no"?>
<!DOCTYPE svg PUBLIC "-//W3C//DTD SVG 20010904//EN"
 "http://www.w3.org/TR/2001/REC-SVG-20010904/DTD/svg10.dtd">
<svg version="1.0" xmlns="http://www.w3.org/2000/svg"
 width="700.000000pt" height="700.000000pt" viewBox="0 0 700.000000 700.000000"
 preserveAspectRatio="xMidYMid meet">
<metadata>
Created by potrace 1.14, written by Peter Selinger 2001-2017
</metadata>
<g transform="translate(0.000000,700.000000) scale(0.100000,-0.100000)"
fill="#000000" stroke="none">
<path d="M1690 5994 c-58 -21 -109 -56 -151 -102 -79 -86 -83 -99 -85 -247
l-2 -131 37 -20 c20 -11 158 -90 306 -175 149 -86 290 -167 315 -181 25 -14
149 -85 275 -158 127 -73 250 -144 275 -158 25 -13 70 -39 100 -57 30 -18 73
-43 94 -55 22 -12 317 -180 655 -375 639 -366 1902 -1088 1981 -1133 25 -14
200 -114 390 -222 190 -108 365 -208 390 -222 25 -14 103 -57 173 -97 169 -95
216 -113 248 -97 20 9 24 19 23 51 0 22 -10 60 -21 85 -22 50 162 -77 -1918
1315 -368 247 -697 467 -731 489 -33 23 -67 46 -76 51 -15 9 -1055 705 -1816
1216 -328 220 -333 223 -390 226 -31 1 -64 0 -72 -3z"/>
<path d="M830 5551 c-49 -16 -106 -50 -152 -91 l-48 -42 0 -189 0 -190 63 -28
c34 -16 106 -49 159 -75 53 -25 125 -59 160 -75 35 -16 121 -56 191 -90 70
-34 130 -61 131 -61 2 0 83 -38 181 -85 97 -47 178 -85 180 -85 2 0 59 -27
128 -59 68 -33 191 -91 273 -129 82 -39 192 -90 244 -115 110 -51 167 -78 500
-235 327 -153 392 -184 480 -225 41 -19 122 -57 180 -85 58 -27 137 -64 175
-82 39 -18 115 -54 170 -80 55 -26 132 -62 170 -80 39 -18 108 -50 155 -72 47
-22 112 -53 145 -68 33 -16 122 -58 198 -94 77 -36 140 -66 142 -66 1 0 72
-33 156 -74 85 -40 210 -99 279 -131 69 -32 190 -88 269 -126 79 -38 145 -69
146 -69 2 0 54 -24 117 -54 299 -142 308 -146 352 -146 57 0 103 17 109 40 9
36 -33 99 -97 144 -93 66 -726 441 -971 576 -27 15 -133 74 -235 132 -160 91
-1245 696 -1400 781 -30 17 -86 47 -123 69 -38 21 -70 38 -72 38 -2 0 -26 13
-52 28 -26 16 -77 44 -113 64 -36 20 -85 47 -110 60 -25 14 -97 54 -160 88
-63 35 -129 71 -147 81 -18 10 -61 34 -95 53 -35 19 -225 123 -423 231 -198
109 -387 212 -420 230 -33 18 -206 113 -385 210 -281 154 -332 179 -375 181
-27 2 -61 0 -75 -5z"/>
<path d="M4010 4994 c0 -4 8 -14 19 -23 10 -9 71 -65 136 -126 192 -180 198
-185 214 -186 61 -3 304 -49 466 -89 587 -144 942 -359 991 -600 15 -79 0
-146 -57 -239 -10 -17 -11 -25 -3 -28 7 -2 10 -12 8 -21 -6 -22 326 -248 337
-230 11 17 9 464 -2 533 -51 314 -412 598 -1009 794 -132 43 -417 119 -473
126 -18 2 -62 11 -98 19 -35 8 -84 18 -109 21 -25 3 -72 10 -105 15 -77 12
-126 18 -195 25 -30 3 -70 8 -87 10 -18 3 -33 2 -33 -1z"/>
<path d="M1015 4488 c-254 -174 -373 -346 -390 -563 -3 -38 -8 -92 -10 -120
-23 -256 -23 -373 -1 -505 120 -695 768 -1277 1721 -1543 150 -42 385 -89 516
-103 30 -3 65 -7 79 -10 137 -26 666 -25 870 1 19 2 58 7 85 11 454 55 948
222 1310 444 125 77 364 256 353 264 -4 4 -278 145 -583 301 -137 71 -299 155
-360 187 -283 150 -550 279 -579 280 -17 1 -74 -2 -126 -6 -52 -4 -126 -9
-165 -12 -93 -6 -618 -6 -720 0 -146 9 -270 18 -295 21 -14 2 -61 7 -105 10
-44 4 -87 8 -95 10 -8 2 -37 7 -65 10 -492 60 -983 205 -1258 372 -139 84
-245 197 -275 293 -25 79 -17 154 27 238 43 84 171 194 314 270 l57 31 -111
80 c-61 45 -116 81 -123 81 -6 0 -38 -19 -71 -42z"/>
<path d="M1830 1575 l0 -146 30 -44 c97 -142 366 -254 775 -324 92 -16 232
-33 395 -48 180 -16 739 -8 920 13 484 57 816 154 961 283 76 66 84 93 82 256
0 77 -2 143 -2 147 -1 5 -23 -7 -49 -26 -53 -39 -198 -114 -282 -146 -145 -57
-467 -129 -650 -145 -36 -4 -70 -8 -76 -10 -33 -10 -301 -20 -539 -19 -235 0
-367 5 -480 19 -16 2 -57 7 -90 11 -33 3 -69 8 -80 10 -10 2 -37 6 -60 9 -194
27 -501 115 -623 180 -36 19 -74 35 -83 35 -9 0 -34 13 -55 28 -21 16 -51 36
-66 46 l-28 18 0 -147z"/>
</g>
</svg>
